<?xml version="1.0" encoding="iso-8859-1"?>
<!-- Generator: Adobe Illustrator 19.0.0, SVG Export Plug-In . SVG Version: 6.00 Build 0)  -->
<svg version="1.1" id="Capa_1" xmlns="http://www.w3.org/2000/svg" xmlns:xlink="http://www.w3.org/1999/xlink" x="0px" y="0px"
	 viewBox="0 0 512 512" style="enable-background:new 0 0 512 512;" xml:space="preserve">
<g>
	<g>
		<path d="M295,36H176.095c-5.522,0-10,4.477-10,10s4.477,10,10,10H295c5.522,0,10-4.477,10-10S300.522,36,295,36z"/>
	</g>
</g>
<g>
	<g>
		<path d="M95.049,38.93c-1.86-1.86-4.44-2.93-7.07-2.93c-2.64,0-5.21,1.07-7.08,2.93c-1.859,1.86-2.92,4.44-2.92,7.07
			s1.061,5.21,2.92,7.07C82.77,54.93,85.34,56,87.979,56c2.63,0,5.2-1.07,7.07-2.93c1.86-1.86,2.93-4.44,2.93-7.07
			S96.91,40.79,95.049,38.93z"/>
	</g>
</g>
<g>
	<g>
		<path d="M57.019,38.93C55.16,37.07,52.58,36,49.95,36c-2.631,0-5.21,1.07-7.07,2.93s-2.93,4.44-2.93,7.07s1.069,5.21,2.93,7.07
			S47.319,56,49.95,56c2.63,0,5.21-1.07,7.069-2.93c1.86-1.86,2.931-4.44,2.931-7.07S58.88,40.79,57.019,38.93z"/>
	</g>
</g>
<g>
	<g>
		<path d="M133.069,38.93C131.21,37.07,128.63,36,126,36s-5.21,1.07-7.07,2.93S116,43.37,116,46s1.069,5.21,2.93,7.07
			c1.861,1.86,4.44,2.93,7.07,2.93s5.21-1.07,7.069-2.93C134.93,51.21,136,48.63,136,46S134.93,40.79,133.069,38.93z"/>
	</g>
</g>
<g>
	<g>
		<path d="M151.821,136H77.708c-5.522,0-10,4.477-10,10s4.478,10,10,10h74.113c5.522,0,10-4.477,10-10S157.343,136,151.821,136z"/>
	</g>
</g>
<g>
	<g>
		<path d="M270.292,136h-74.113c-5.522,0-10,4.477-10,10s4.478,10,10,10h74.113c5.522,0,10-4.477,10-10S275.814,136,270.292,136z"/>
	</g>
</g>
<g>
	<g>
		<path d="M270.292,231.99H126c-5.522,0-10,4.477-10,10s4.478,10,10,10h144.292c5.522,0,10-4.477,10-10
			S275.814,231.99,270.292,231.99z"/>
	</g>
</g>
<g>
	<g>
		<path d="M84.78,234.93c-1.86-1.86-4.44-2.93-7.07-2.93s-5.21,1.07-7.07,2.93c-1.87,1.86-2.93,4.44-2.93,7.07
			c0,2.64,1.06,5.21,2.93,7.07c1.86,1.87,4.44,2.93,7.07,2.93s5.21-1.06,7.07-2.93c1.859-1.86,2.93-4.43,2.93-7.07
			C87.71,239.37,86.64,236.79,84.78,234.93z"/>
	</g>
</g>
<g>
	<g>
		<path d="M203.471,183.999H77.708c-5.522,0-10,4.477-10,10c0,5.523,4.478,10,10,10h125.763c5.522,0,10-4.477,10-10
			C213.471,188.476,208.993,183.999,203.471,183.999z"/>
	</g>
</g>
<g>
	<g>
		<path d="M270.292,183.999h-24.511c-5.522,0-10,4.477-10,10c0,5.523,4.478,10,10,10h24.511c5.522,0,10-4.477,10-10
			C280.292,188.476,275.814,183.999,270.292,183.999z"/>
	</g>
</g>
<g>
	<g>
		<path d="M183.927,280.13H77.708c-5.522,0-10,4.478-10,10c0,5.522,4.478,10,10,10h106.219c5.522,0,10-4.478,10-10
			C193.927,284.608,189.449,280.13,183.927,280.13z"/>
	</g>
</g>
<g>
	<g>
		<path d="M270.292,280.13h-42.009c-5.522,0-10,4.478-10,10c0,5.522,4.478,10,10,10h42.009c5.522,0,10-4.478,10-10
			C280.292,284.608,275.814,280.13,270.292,280.13z"/>
	</g>
</g>
<g>
	<g>
		<path d="M101.708,376.133h-24c-5.522,0-10,4.478-10,10c0,5.522,4.478,10,10,10h24c5.522,0,10-4.478,10-10
			C111.708,380.611,107.23,376.133,101.708,376.133z"/>
	</g>
</g>
<g>
	<g>
		<path d="M233.667,376.12h-92.056c-5.522,0-10,4.478-10,10c0,5.522,4.478,10,10,10h92.056c5.522,0,10-4.477,10-10
			C243.667,380.598,239.189,376.12,233.667,376.12z"/>
	</g>
</g>
<g>
	<g>
		<path d="M277.359,379.05c-1.859-1.86-4.439-2.93-7.069-2.93s-5.21,1.069-7.07,2.93c-1.86,1.861-2.93,4.44-2.93,7.07
			s1.069,5.21,2.93,7.069c1.86,1.86,4.44,2.931,7.07,2.931s5.21-1.07,7.069-2.931c1.87-1.859,2.931-4.439,2.931-7.069
			S279.229,380.91,277.359,379.05z"/>
	</g>
</g>
<g>
	<g>
		<path d="M139.276,328.128H77.708c-5.522,0-10,4.478-10,10c0,5.522,4.478,10,10,10h61.568c5.522,0,10-4.478,10-10
			C149.276,332.606,144.798,328.128,139.276,328.128z"/>
	</g>
</g>
<g>
	<g>
		<path d="M270.292,328.128h-88.661c-5.522,0-10,4.478-10,10c0,5.522,4.478,10,10,10h88.661c5.522,0,10-4.478,10-10
			C280.292,332.606,275.814,328.128,270.292,328.128z"/>
	</g>
</g>
<g>
	<g>
		<path d="M270.292,424.111h-24c-5.522,0-10,4.478-10,10c0,5.522,4.478,10,10,10h24c5.522,0,10-4.478,10-10
			C280.292,428.589,275.814,424.111,270.292,424.111z"/>
	</g>
</g>
<g>
	<g>
		<path d="M194.894,424.125H77.708c-5.522,0-10,4.478-10,10c0,5.522,4.478,10,10,10h117.186c5.522,0,10-4.478,10-10
			C204.894,428.603,200.416,424.125,194.894,424.125z"/>
	</g>
</g>
<g>
	<g>
		<path d="M512,256c0-3.396-1.724-6.56-4.576-8.401l-36.987-23.88l36.987-23.88c2.853-1.842,4.576-5.006,4.576-8.401
			s-1.724-6.56-4.576-8.401l-100-64.563c-3.301-2.132-7.547-2.132-10.848,0l-100,64.563c-2.853,1.842-4.576,5.006-4.576,8.401
			s1.724,6.56,4.576,8.401l36.987,23.88l-36.987,23.88C293.724,249.44,292,252.604,292,256s1.724,6.56,4.576,8.401l36.987,23.88
			l-36.987,23.88c-2.853,1.842-4.576,5.006-4.576,8.401c0,3.395,1.724,6.56,4.576,8.401L328,349.252V470c0,12.131-9.869,22-22,22H42
			c-12.131,0-22-9.869-22-22V92h308v30c0,5.523,4.478,10,10,10c5.522,0,10-4.477,10-10V42c0-23.159-18.841-42-42-42H42
			C18.841,0,0,18.841,0,42v428c0,23.159,18.841,42,42,42h264c23.159,0,42-18.841,42-42V362.164l48.576,31.362
			c1.65,1.065,3.537,1.599,5.424,1.599s3.773-0.533,5.424-1.599l100-64.563c2.853-1.842,4.576-5.006,4.576-8.401
			c0-3.395-1.724-6.56-4.576-8.401l-36.987-23.88l36.987-23.88C510.276,262.56,512,259.396,512,256z M20,42c0-12.131,9.869-22,22-22
			h264c12.131,0,22,9.869,22,22v30H20V42z M320.437,191.437L402,138.778l81.563,52.66l-36.986,23.879l-0.001,0.001L402,244.097
			l-44.576-28.78c0,0-0.001,0-0.001-0.001L320.437,191.437z M483.563,320.563L402,373.222l-81.563-52.659L352,300.185l44.576,28.779
			c1.65,1.065,3.537,1.599,5.424,1.599s3.773-0.533,5.424-1.599L452,300.185L483.563,320.563z M402,308.659L320.437,256L352,235.622
			l44.576,28.78c1.65,1.065,3.537,1.599,5.424,1.599s3.773-0.533,5.424-1.599L452,235.622L483.563,256L402,308.659z"/>
	</g>
</g>
<g>
</g>
<g>
</g>
<g>
</g>
<g>
</g>
<g>
</g>
<g>
</g>
<g>
</g>
<g>
</g>
<g>
</g>
<g>
</g>
<g>
</g>
<g>
</g>
<g>
</g>
<g>
</g>
<g>
</g>
</svg>
