<?xml version="1.0" encoding="iso-8859-1"?>
<!-- Generator: Adobe Illustrator 19.0.0, SVG Export Plug-In . SVG Version: 6.00 Build 0)  -->
<svg version="1.1" id="Capa_1" xmlns="http://www.w3.org/2000/svg" xmlns:xlink="http://www.w3.org/1999/xlink" x="0px" y="0px"
	 viewBox="0 0 512 512" style="enable-background:new 0 0 512 512;" xml:space="preserve">
<g>
	<g>
		<path d="M301,181c-8.276,0-15,6.724-15,15s6.724,15,15,15s15-6.724,15-15S309.276,181,301,181z"/>
	</g>
</g>
<g>
	<g>
		<path d="M151,91c-8.276,0-15,6.724-15,15s6.724,15,15,15s15-6.724,15-15S159.276,91,151,91z"/>
	</g>
</g>
<g>
	<g>
		<path d="M211,271c-8.276,0-15,6.724-15,15s6.724,15,15,15s15-6.724,15-15S219.276,271,211,271z"/>
	</g>
</g>
<g>
	<g>
		<path d="M451,0H61C36.186,0,16,20.186,16,45v422c0,24.814,20.186,45,45,45h315V407c0-8.286,6.716-15,15-15h105V45
			C496,20.186,475.814,0,451,0z M241,452H121c-8.291,0-15-6.709-15-15c0-8.291,6.709-15,15-15h120c8.291,0,15,6.709,15,15
			C256,445.291,249.291,452,241,452z M106,377c0-8.291,6.709-15,15-15h60c8.291,0,15,6.709,15,15c0,8.291-6.709,15-15,15h-60
			C112.709,392,106,385.291,106,377z M166,271h2.763c6.213-17.422,22.707-30,42.237-30c19.53,0,36.024,12.578,42.237,30h101.552
			l-4.395-4.395c-5.859-5.859-5.859-15.352,0-21.211c5.859-5.859,15.352-5.859,21.211,0l29.982,29.982
			c5.836,5.819,5.872,15.39,0,21.248l-29.982,29.982c-5.859,5.859-15.352,5.859-21.211,0s-5.859-15.352,0-21.211l4.395-4.395
			H253.237c-6.213,17.422-22.707,30-42.237,30c-19.53,0-36.024-12.578-42.237-30H166c-33.091,0-60-26.909-60-60s26.909-60,60-60
			h92.763c6.213-17.422,22.707-30,42.237-30c19.53,0,36.024,12.578,42.237,30H346c16.538,0,30-13.462,30-30
			c0-16.538-13.462-30-30-30H193.237c-6.213,17.422-22.707,30-42.237,30c-24.814,0-45-20.186-45-45c0-24.814,20.186-45,45-45
			c19.53,0,36.024,12.578,42.237,30H346c33.091,0,60,26.909,60,60s-26.909,60-60,60h-2.763c-6.213,17.422-22.707,30-42.237,30
			c-19.53,0-36.024-12.578-42.237-30H166c-16.538,0-30,13.462-30,30C136,257.538,149.462,271,166,271z"/>
	</g>
</g>
<g>
	<g>
		<polygon points="406,422 406,503.211 487.211,422 		"/>
	</g>
</g>
<g>
</g>
<g>
</g>
<g>
</g>
<g>
</g>
<g>
</g>
<g>
</g>
<g>
</g>
<g>
</g>
<g>
</g>
<g>
</g>
<g>
</g>
<g>
</g>
<g>
</g>
<g>
</g>
<g>
</g>
</svg>
